HIERARCHY
ROOT Hips
{
	OFFSET 0.000000 0.000000 0.000000
	CHANNELS 6 Xposition Yposition Zposition Zrotation Yrotation Xrotation 
	JOINT LHipJoint
	{
		OFFSET 0.000000 0.000000 0.000000
		CHANNELS 3 Zrotation Yrotation Xrotation
		JOINT LeftUpLeg
		{
			OFFSET 1.363060 -1.794630 0.839290
			CHANNELS 3 Zrotation Yrotation Xrotation
			JOINT LeftLeg
			{
				OFFSET 2.448110 -6.726130 0.000000
				CHANNELS 3 Zrotation Yrotation Xrotation
				JOINT LeftFoot
				{
					OFFSET 2.562200 -7.039590 0.000000
					CHANNELS 3 Zrotation Yrotation Xrotation
					JOINT LeftToeBase
					{
						OFFSET 0.157640 -0.433110 2.322550
						CHANNELS 3 Zrotation Yrotation Xrotation
						End Site
						{
							OFFSET 0.000000 0.000000 0.000000
						}
					}
				}
			}
		}
	}
	JOINT RHipJoint
	{
		OFFSET 0.000000 0.000000 0.000000
		CHANNELS 3 Zrotation Yrotation Xrotation
		JOINT RightUpLeg
		{
			OFFSET -1.305520 -1.794630 0.839290
			CHANNELS 3 Zrotation Yrotation Xrotation
			JOINT RightLeg
			{
				OFFSET -2.542530 -6.985550 0.000000
				CHANNELS 3 Zrotation Yrotation Xrotation
				JOINT RightFoot
				{
					OFFSET -2.568260 -7.056230 0.000000
					CHANNELS 3 Zrotation Yrotation Xrotation
					JOINT RightToeBase
					{
						OFFSET -0.164730 -0.452590 2.363150
						CHANNELS 3 Zrotation Yrotation Xrotation
						End Site
						{
							OFFSET 0.000000 0.000000 0.000000
						}
					}
				}
			}
		}
	}
	JOINT LowerBack
	{
		OFFSET 0.000000 0.000000 0.000000
		CHANNELS 3 Zrotation Yrotation Xrotation
		JOINT Spine
		{
			OFFSET 0.028270 2.035590 -0.193380
			CHANNELS 3 Zrotation Yrotation Xrotation
			JOINT Spine1
			{
				OFFSET 0.056720 2.048850 -0.042750
				CHANNELS 3 Zrotation Yrotation Xrotation
				JOINT Neck
				{
					OFFSET 0.000000 0.000000 0.000000
					CHANNELS 3 Zrotation Yrotation Xrotation
					JOINT Neck1
					{
						OFFSET -0.054170 1.746240 0.172020
						CHANNELS 3 Zrotation Yrotation Xrotation
						JOINT Head
						{
							OFFSET 0.104070 1.761360 -0.123970
							CHANNELS 3 Zrotation Yrotation Xrotation
							End Site
							{
								OFFSET 0.000000 0.000000 0.000000
							}
						}
					}
				}
				JOINT LeftShoulder
				{
					OFFSET 0.000000 0.000000 0.000000
					CHANNELS 3 Zrotation Yrotation Xrotation
					JOINT LeftArm
					{
						OFFSET 3.362410 1.200890 -0.311210
						CHANNELS 3 Zrotation Yrotation Xrotation
						JOINT LeftForeArm
						{
							OFFSET 4.983000 -0.000000 -0.000000
							CHANNELS 3 Zrotation Yrotation Xrotation
							JOINT LeftHand
							{
								OFFSET 3.483560 -0.000000 -0.000000
								CHANNELS 3 Zrotation Yrotation Xrotation
								JOINT LeftFingerBase
								{
									OFFSET 0.000000 0.000000 0.000000
									CHANNELS 3 Zrotation Yrotation Xrotation
									JOINT LeftHandIndex1
									{
										OFFSET 0.715260 -0.000000 -0.000000
										CHANNELS 3 Zrotation Yrotation Xrotation
										End Site
										{
											OFFSET 0.000000 0.000000 0.000000
										}
									}
								}
								JOINT LThumb
								{
									OFFSET 0.000000 0.000000 0.000000
									CHANNELS 3 Zrotation Yrotation Xrotation
									End Site
									{
										OFFSET 0.000000 0.000000 0.000000
									}
								}
							}
						}
					}
				}
				JOINT RightShoulder
				{
					OFFSET 0.000000 0.000000 0.000000
					CHANNELS 3 Zrotation Yrotation Xrotation
					JOINT RightArm
					{
						OFFSET -3.136600 1.374050 -0.404650
						CHANNELS 3 Zrotation Yrotation Xrotation
						JOINT RightForeArm
						{
							OFFSET -5.241900 -0.000000 -0.000000
							CHANNELS 3 Zrotation Yrotation Xrotation
							JOINT RightHand
							{
								OFFSET -3.444170 -0.000000 -0.000000
								CHANNELS 3 Zrotation Yrotation Xrotation
								JOINT RightFingerBase
								{
									OFFSET 0.000000 0.000000 0.000000
									CHANNELS 3 Zrotation Yrotation Xrotation
									JOINT RightHandIndex1
									{
										OFFSET -0.622530 -0.000000 -0.000000
										CHANNELS 3 Zrotation Yrotation Xrotation
										End Site
										{
											OFFSET 0.000000 0.000000 0.000000
										}
									}
								}
								JOINT RThumb
								{
									OFFSET 0.000000 0.000000 0.000000
									CHANNELS 3 Zrotation Yrotation Xrotation
									End Site
									{
										OFFSET 0.000000 0.000000 0.000000
									}
								}
							}
						}
					}
				}
			}
		}
	}
}
MOTION
Frames: 7
Frame Time: 0.008333
0.787896 17.524877 2.923592 -179.397073 -84.196019 -159.581262 -10.898546 1.662066 0.058217 -8.188369 6.602617 -12.113600 -2.632260 -1.043609 2.227831 -0.013216 -0.546657 0.103428 0.130900 -0.000001 -40.955800 9.131228 -0.029289 0.279288 10.471418 -2.076441 -46.483783 1.708277 -2.814174 36.042001 -0.867570 -3.518204 1.095883 -1.069400 0.000000 -50.723000 -0.813659 -2.809299 0.578932 -1.005555 -2.812786 -2.808552 -7.552121 -2.915715 0.504134 11.077974 -2.038778 -4.213749 -3.807720 -0.304620 0.774290 0.000000 0.000000 0.000000 -4.134971 0.614687 3.574684 -53.193520 -22.282962 18.067379 -3.643247 -47.410276 0.035051 -10.409831 -1.151842 0.121072 -0.069955 0.170217 -0.000000 0.000000 0.000000 0.000000 0.000000 0.000000 0.000000 17.509930 -1.006174 1.933384 60.372932 3.654607 15.712989 3.628255 28.897826 0.017588 9.385694 10.889895 0.899302 0.034303 -0.064476 0.000000 0.000000 0.000000 0.000000 0.000000 0.000000 0.000000 
0.528288 17.474688 2.890091 174.962650 -85.171147 -153.984296 -10.858749 1.703381 -0.053871 -8.257175 6.314467 -10.827367 -2.660227 -1.048083 2.109291 -0.053494 -0.951676 -0.162444 0.084200 -0.000000 -41.822600 9.078968 0.099133 0.551733 9.677826 -1.948301 -46.978768 1.982771 -2.497595 32.188474 -0.786684 -3.160747 1.471396 -1.082400 0.000000 -50.314000 -0.858651 -3.188448 0.531540 -1.022107 -3.195585 -2.775803 -7.626161 -3.286906 0.586401 11.319960 -2.690920 -4.282201 -3.814229 -0.304929 0.760768 0.000000 0.000000 0.000000 -3.340693 0.014979 3.597098 -51.692237 -23.753907 18.595215 -3.426956 -50.000805 0.037945 -10.522875 -1.135189 0.122484 -0.057433 0.185595 -0.000000 0.000000 0.000000 0.000000 0.000000 0.000000 0.000000 17.848467 -1.877733 1.921719 60.369316 2.297347 15.462427 3.645313 28.667214 0.016932 9.324646 10.906176 0.893987 0.036591 -0.058161 0.000000 0.000000 0.000000 0.000000 0.000000 0.000000 0.000000 
0.269206 17.415282 2.852250 166.139956 -86.172587 -145.196644 -10.742707 1.721700 -0.193737 -8.334941 5.971886 -9.521985 -2.698445 -1.059641 2.060352 -0.093748 -1.373850 -0.515153 0.041900 0.000000 -42.839300 9.102961 0.242340 0.867906 8.669417 -1.828548 -47.381345 2.212401 -2.134269 28.132911 -0.718989 -2.904747 2.043156 -1.119400 -0.000000 -49.713900 -0.917283 -3.573644 0.485302 -1.046748 -3.584747 -2.742132 -7.694777 -3.663446 0.668247 11.561275 -3.376506 -4.357287 -3.818166 -0.305123 0.745327 0.000000 0.000000 0.000000 -2.477649 -0.623971 3.604622 -50.070153 -25.208142 18.909691 -3.190651 -52.489723 0.040956 -10.641445 -1.102714 0.122481 -0.042831 0.201601 -0.000000 0.000000 0.000000 0.000000 0.000000 0.000000 0.000000 18.179778 -2.789255 1.903231 60.368846 0.888881 14.963826 3.656277 28.551472 0.016327 9.242631 10.911997 0.885776 0.038715 -0.052412 0.000000 0.000000 0.000000 0.000000 0.000000 0.000000 0.000000 
0.010406 17.347314 2.810969 153.137133 -87.091207 -132.224266 -10.504620 1.754490 -0.360591 -8.391458 5.609483 -8.192230 -2.746468 -1.066817 2.048968 -0.130493 -1.809209 -0.939495 0.004601 0.000000 -44.024600 9.247553 0.449898 1.215316 7.503062 -1.717717 -47.681211 2.375583 -1.720707 23.928285 -0.662458 -2.743539 2.777035 -1.176300 -0.000000 -49.054600 -0.915135 -3.935044 0.451117 -1.061416 -3.953584 -2.703933 -7.757520 -4.018787 0.759602 11.793856 -4.145410 -4.459724 -3.816864 -0.304758 0.722465 0.000000 0.000000 0.000000 -1.559366 -1.267836 3.581491 -48.352816 -26.651572 18.994650 -2.936155 -54.856884 0.044091 -10.767273 -1.063085 0.121957 -0.025787 0.218166 -0.000000 0.000000 0.000000 0.000000 0.000000 0.000000 0.000000 18.491398 -3.780068 1.882739 60.363393 -0.471063 14.315477 3.665149 28.493955 0.015898 9.114739 10.930490 0.874268 0.041183 -0.047388 0.000000 0.000000 0.000000 0.000000 0.000000 0.000000 0.000000 
-0.248169 17.271497 2.767206 136.169036 -87.707382 -115.295667 -10.178864 1.857825 -0.536303 -8.429845 5.268147 -6.841933 -2.798689 -1.047705 2.031278 -0.157194 -2.231179 -1.417048 -0.026600 -0.000000 -45.368001 9.499998 0.781710 1.560413 6.237558 -1.610020 -47.868356 2.465889 -1.253371 19.654399 -0.603152 -2.633251 3.632604 -1.244100 0.000000 -48.489300 -0.879086 -4.220163 0.434441 -1.064435 -4.246620 -2.663272 -7.811832 -4.299370 0.850325 12.010353 -4.964131 -4.584324 -3.808678 -0.303704 0.693642 0.000000 0.000000 0.000000 -0.597605 -1.883805 3.519765 -46.561392 -28.054131 18.839019 -2.667517 -57.096403 0.047317 -10.900300 -1.021246 0.121209 -0.006238 0.235046 -0.000000 0.000000 0.000000 0.000000 0.000000 0.000000 0.000000 18.765216 -4.785671 1.866975 60.365221 -1.802614 13.468393 3.675175 28.493432 0.015689 8.980509 10.943861 0.861765 0.043934 -0.043284 0.000000 0.000000 0.000000 0.000000 0.000000 0.000000 0.000000 
-0.507162 17.188584 2.721998 118.163676 -87.865639 -97.349608 -9.902723 2.026767 -0.703281 -8.498428 4.963263 -5.458911 -2.848228 -0.998587 1.984816 -0.174701 -2.624501 -1.911696 -0.050700 0.000000 -46.832000 9.755788 1.208690 1.865766 4.894451 -1.556345 -47.963401 2.508702 -0.748518 15.396734 -0.526658 -2.511273 4.550253 -1.307400 0.000000 -48.159200 -0.953755 -4.424115 0.445538 -1.081591 -4.450301 -2.614766 -7.846282 -4.491589 0.946672 12.204475 -5.868432 -4.743470 -3.790626 -0.301608 0.655282 0.000000 0.000000 0.000000 0.396558 -2.437310 3.414095 -44.710149 -29.415093 18.448808 -2.391799 -59.196588 0.050584 -11.041335 -0.981822 0.120734 0.015701 0.251916 -0.000000 0.000000 0.000000 0.000000 0.000000 0.000000 0.000000 18.991216 -5.842430 1.855719 60.366148 -3.023810 12.533260 3.685992 28.506821 0.015749 8.821731 10.970822 0.847970 0.047165 -0.040186 0.000000 0.000000 0.000000 0.000000 0.000000 0.000000 0.000000 
-0.766897 17.099427 2.676186 102.871927 -87.626647 -82.159192 -9.743168 2.203215 -0.864242 -8.616348 4.682021 -4.011343 -2.893203 -0.938305 1.922073 -0.190509 -3.000428 -2.382381 -0.067400 0.000001 -48.363300 9.946370 1.644491 2.114896 3.506452 -1.653956 -47.996155 2.532158 -0.240575 11.229197 -0.429840 -2.322347 5.451560 -1.342300 0.000000 -48.171600 -1.189808 -4.596118 0.500894 -1.127142 -4.612049 -2.556420 -7.853245 -4.642348 1.038377 12.369350 -6.814188 -4.920991 -3.762859 -0.298636 0.611634 0.000000 0.000000 0.000000 1.413926 -2.948376 3.275821 -42.816883 -30.702157 17.838137 -2.118283 -61.153124 0.053940 -11.191574 -0.945727 0.120635 0.039536 0.268860 -0.000000 0.000000 0.000000 0.000000 0.000000 0.000000 0.000000 19.158418 -6.928106 1.845494 60.379124 -4.186070 11.469984 3.696939 28.547876 0.015943 8.680581 10.992048 0.835378 0.050436 -0.037721 0.000000 0.000000 0.000000 0.000000 0.000000 0.000000 0.000000 
